<svg width="67" height="38" viewBox="0 0 67 38" fill="none" xmlns="http://www.w3.org/2000/svg">
<path d="M12 2L12 0.499998L10.5 0.499998L10.5 2L12 2ZM10.9393 37.0606C11.5251 37.6464 12.4749 37.6464 13.0607 37.0606L22.6066 27.5147C23.1924 26.9289 23.1924 25.9791 22.6066 25.3934C22.0208 24.8076 21.0711 24.8076 20.4853 25.3934L12 33.8786L3.51472 25.3934C2.92893 24.8076 1.97919 24.8076 1.39339 25.3934C0.807609 25.9791 0.807608 26.9289 1.39339 27.5147L10.9393 37.0606ZM67 0.5L12 0.499998L12 3.5L67 3.5L67 0.5ZM10.5 2L10.5 36L13.5 36L13.5 2L10.5 2Z" fill="#1D243E"/>
</svg>
